<?xml version="1.0" ?><svg id="Livello_1" stroke = "white" fill="white" style="enable-background:new 0 0 100 100;" version="1.1" viewBox="0 0 100 100" xml:space="preserve" xmlns="http://www.w3.org/2000/svg" xmlns:xlink="http://www.w3.org/1999/xlink">

<path d="M66.4,71.1h-30c-1.7,0-3-1.3-3-3v-34c0-1.7,1.3-3,3-3h30c1.7,0,3,1.3,3,3v34C69.4,69.7,68,71.1,66.4,71.1z M37.4,67.1h28  v-32h-28V67.1z"/><path d="M73.4,64.1c-1.1,0-2-0.9-2-2v-33h-29c-1.1,0-2-0.9-2-2s0.9-2,2-2h29.6c1.6,0,3.4,1.2,3.4,3v34  C75.4,63.2,74.5,64.1,73.4,64.1z M71.9,29.1L71.9,29.1L71.9,29.1z"/><g/><g/><g/><g/><g/><g/></svg>
